<?xml version="1.0" encoding="UTF-8"?>
<svg viewBox="0 0 867.55206 544.20251" xmlns="http://www.w3.org/2000/svg" xmlns:xlink="http://www.w3.org/1999/xlink">
 <defs>
  <filter id="e">
   <feGaussianBlur stdDeviation="19.37059"/>
  </filter>
  <filter id="f" x="-.1211" y="-.21193" width="1.2422" height="1.4238">
   <feGaussianBlur stdDeviation=".71805"/>
  </filter>
  <linearGradient id="a">
   <stop stop-color="#f2f2f2" offset="0"/>
   <stop stop-color="#f2f2f2" stop-opacity="0" offset="1"/>
  </linearGradient>
  <linearGradient id="b" x1="297.3" x2="278.82" y1="368.29" y2="432.64" gradientTransform="matrix(3.5076 0 0 4.0822 -580.5 -1190.5)" gradientUnits="userSpaceOnUse">
   <stop stop-color="#e6e6e6" offset="0"/>
   <stop stop-color="#e6e6e6" stop-opacity="0" offset="1"/>
  </linearGradient>
  <linearGradient id="d" x1="299.54" x2="358.7" y1="380.37" y2="315.32" gradientTransform="matrix(3.5076 0 0 4.0822 -580.5 -1190.5)" gradientUnits="userSpaceOnUse" xlink:href="#a"/>
  <linearGradient id="c" x1="309.98" x2="292.75" y1="206.12" y2="340.62" gradientUnits="userSpaceOnUse" xlink:href="#a"/>
 </defs>
 <g transform="translate(-143.39 -109.66)">
  <path transform="translate(117.28 87.572)" d="m435.78 30.098 435.78 164.67-453.86 359.47-377.55-218.9 395.62-305.25z" filter="url(#e)"/>
  <path d="m627.74 109.66 363.18 144.33-444.67 348.45-350.78-193.81 432.27-298.97z" fill="#ccc"/>
  <path d="m641.24 126.01-380.58 263.18 293.98 162.4 389.56-305.15-302.97-120.43z" fill="#4d4d4d"/>
  <path d="m195.47 408.56 350.81 193.89v47.35l-346.43-197.99-4.3801-43.252z"/>
  <path d="m546.25 602.46 444.47-348.26-15.785 41.235-428.69 354.39 6.2e-4 -47.359z"/>
  <path transform="matrix(3.5076 0 0 4.0822 -581.34 -1188.6)" d="m348.5 324.38-105.03 62.406 80 37.969 107.38-72.25-82.344-28.125z" fill="#008080"/>
  <path d="m641.03 135.62-215.5 149c66.894-4.3402 138.45-4.0974 195.66 7.9093 56.123 11.778 123.44 32.561 186.01 53.962l122.66-96.06-288.83-114.81z" fill="url(#d)"/>
  <path d="m145.14 122.42 482.3-12.247 355.26 145.67-392.36 37.946-445.2-171.37z"/>
  <path d="m143.39 110.42 484.05 4.0822 356.02 138.8-392.85 34.699-447.22-177.58z" fill="#fff"/>
  <path d="m146.89 114.26 480.54-4.0822 356.02 138.8-389.34 32.658-447.22-167.37z"/>
  <path transform="matrix(3.5076 0 0 4.0822 -580.5 -1190.5)" d="m210.06 320.19c-0.82528 0.07919-1.4818 0.72656-1.5725 1.5506s0.40921 1.5988 1.1975 1.8556l16.781 5.625c0.29132 0.10023 0.60393 0.12179 0.90625 0.0625 21.691-4.471 51.734-6.6547 88.344 1 26.478 5.5364 53.109 13.1 76.938 20.688 0.17117 0.05852 0.35039 0.09014 0.53125 0.09375h32.312c0.85516-0.00178 1.5838-0.62128 1.7232-1.465s-0.35146-1.6646-1.1606-1.9412l-81.719-27.375c-0.18111-0.06179-0.37114-0.09346-0.5625-0.09375h-133.72z" fill="url(#c)"/>
  <path d="m195.45 410.53 4.1653 41.588 346.7 197.73v-35.337c-45.927-18.892-112.69-48.32-184.92-86.747-79.15-42.11-134.56-87.757-165.95-117.24z" fill="url(#b)"/>
  <path transform="matrix(1.082 0 0 1.0803 13.424 -57.18)" d="m318.91 475.04a24.395 12.374 0 1 1 -48.79 0 24.395 12.374 0 1 1 48.79 0z" fill="#fff"/>
  <path transform="matrix(1.082 0 0 1.0803 12.755 -59.949)" d="m318.91 475.04a24.395 12.374 0 1 1 -48.79 0 24.395 12.374 0 1 1 48.79 0z"/>
  <path transform="matrix(.59199 0 0 .62505 346.83 264.23)" d="m318.91 475.04a24.395 12.374 0 1 1 -48.79 0 24.395 12.374 0 1 1 48.79 0z" fill="#0ff"/>
  <path transform="matrix(1.082 0 0 1.0803 16.485 -58.708)" d="m298.09 473.27a7.1153 4.0659 0 1 1 -14.231 0 7.1153 4.0659 0 1 1 14.231 0z" fill="#f9f9f9" filter="url(#f)"/>
  <path d="m311.46 365.67 274.08 154.42-32.231 25.348-277.39-153.27 35.544-26.499z"/>
 </g>
</svg>
